<svg xmlns="http://www.w3.org/2000/svg" version="1.1" xmlns:xlink="http://www.w3.org/1999/xlink" xmlns:svgjs="http://svgjs.dev/svgjs" viewBox="0 0 800 800"><defs><linearGradient x1="50%" y1="0%" x2="50%" y2="100%" id="vvvortex-grad"><stop stop-color="hsl(206, 75%, 49%)" stop-opacity="1" offset="0%"></stop><stop stop-color="hsl(331, 90%, 56%)" stop-opacity="1" offset="100%"></stop></linearGradient></defs><g stroke="url(#vvvortex-grad)" fill="none" stroke-linecap="round"><circle r="363" cx="400" cy="400" stroke-width="11" stroke-dasharray="14 20" stroke-dashoffset="25" transform="rotate(209, 400, 400)" opacity="0.05"></circle><circle r="346.5" cx="400" cy="400" stroke-width="11" stroke-dasharray="20 30" stroke-dashoffset="25" transform="rotate(283, 400, 400)" opacity="0.10"></circle><circle r="330" cx="400" cy="400" stroke-width="10" stroke-dasharray="20 23" stroke-dashoffset="25" transform="rotate(62, 400, 400)" opacity="0.14"></circle><circle r="313.5" cx="400" cy="400" stroke-width="10" stroke-dasharray="54 32" stroke-dashoffset="25" transform="rotate(156, 400, 400)" opacity="0.19"></circle><circle r="297" cx="400" cy="400" stroke-width="10" stroke-dasharray="41 32" stroke-dashoffset="25" transform="rotate(317, 400, 400)" opacity="0.23"></circle><circle r="280.5" cx="400" cy="400" stroke-width="10" stroke-dasharray="45 20" stroke-dashoffset="25" transform="rotate(210, 400, 400)" opacity="0.28"></circle><circle r="264" cx="400" cy="400" stroke-width="9" stroke-dasharray="40 21" stroke-dashoffset="25" transform="rotate(230, 400, 400)" opacity="0.32"></circle><circle r="247.5" cx="400" cy="400" stroke-width="9" stroke-dasharray="21 53" stroke-dashoffset="25" transform="rotate(308, 400, 400)" opacity="0.37"></circle><circle r="231" cx="400" cy="400" stroke-width="9" stroke-dasharray="21 49" stroke-dashoffset="25" transform="rotate(297, 400, 400)" opacity="0.41"></circle><circle r="214.5" cx="400" cy="400" stroke-width="8" stroke-dasharray="20 22" stroke-dashoffset="25" transform="rotate(57, 400, 400)" opacity="0.46"></circle><circle r="198" cx="400" cy="400" stroke-width="8" stroke-dasharray="48 40" stroke-dashoffset="25" transform="rotate(132, 400, 400)" opacity="0.50"></circle><circle r="181.5" cx="400" cy="400" stroke-width="8" stroke-dasharray="22 51" stroke-dashoffset="25" transform="rotate(334, 400, 400)" opacity="0.55"></circle><circle r="165" cx="400" cy="400" stroke-width="8" stroke-dasharray="25 33" stroke-dashoffset="25" transform="rotate(59, 400, 400)" opacity="0.59"></circle><circle r="148.5" cx="400" cy="400" stroke-width="7" stroke-dasharray="53 43" stroke-dashoffset="25" transform="rotate(13, 400, 400)" opacity="0.64"></circle><circle r="132" cx="400" cy="400" stroke-width="7" stroke-dasharray="37 18" stroke-dashoffset="25" transform="rotate(51, 400, 400)" opacity="0.68"></circle><circle r="115.5" cx="400" cy="400" stroke-width="7" stroke-dasharray="36 33" stroke-dashoffset="25" transform="rotate(308, 400, 400)" opacity="0.73"></circle><circle r="99" cx="400" cy="400" stroke-width="6" stroke-dasharray="18 16" stroke-dashoffset="25" transform="rotate(149, 400, 400)" opacity="0.77"></circle><circle r="82.5" cx="400" cy="400" stroke-width="6" stroke-dasharray="14 17" stroke-dashoffset="25" transform="rotate(285, 400, 400)" opacity="0.82"></circle><circle r="66" cx="400" cy="400" stroke-width="6" stroke-dasharray="54 51" stroke-dashoffset="25" transform="rotate(94, 400, 400)" opacity="0.86"></circle><circle r="49.5" cx="400" cy="400" stroke-width="6" stroke-dasharray="46 23" stroke-dashoffset="25" transform="rotate(128, 400, 400)" opacity="0.91"></circle><circle r="33" cx="400" cy="400" stroke-width="5" stroke-dasharray="49 15" stroke-dashoffset="25" transform="rotate(255, 400, 400)" opacity="0.95"></circle><circle r="16.5" cx="400" cy="400" stroke-width="5" stroke-dasharray="54 13" stroke-dashoffset="25" transform="rotate(283, 400, 400)" opacity="1.00"></circle></g></svg>